<svg width="24" height="24" viewBox="0 0 24 24" fill="none" xmlns="http://www.w3.org/2000/svg">
  <g clip-path="url(#clip0_12_5)">
    <circle cx="12" cy="12" r="12" fill="#FF5757" />
    <path
      d="M9.0919 5.01169C10.0321 4.87958 11.028 5.88206 11.3148 7.26533C11.6016 8.64083 11.0837 9.86868 10.1436 10.0086C9.21141 10.1484 8.20752 9.14596 7.91273 7.76269C7.61793 6.38719 8.15175 5.15934 9.0919 5.01169ZM14.7886 5.01169C15.7367 5.15934 16.2626 6.38719 15.9837 7.76269C15.6809 9.14596 14.685 10.1484 13.7449 10.0086C12.7967 9.86868 12.2789 8.64083 12.5737 7.26533C12.8605 5.88206 13.8564 4.87958 14.7886 5.01169ZM4.82934 8.58643C5.73763 8.20564 6.97257 8.89728 7.61793 10.1018C8.22345 11.3297 8.0163 12.6197 7.11599 13.0005C6.21567 13.3812 4.98869 12.6974 4.35927 11.4773C3.72984 10.2572 3.95293 8.95945 4.82934 8.58643ZM19.1707 8.58643C20.0471 8.95945 20.2702 10.2572 19.6407 11.4773C19.0113 12.6974 17.7843 13.3812 16.884 13.0005C15.9837 12.6197 15.7765 11.3297 16.3821 10.1018C17.0274 8.89728 18.2624 8.20564 19.1707 8.58643ZM17.8401 16.9638C17.872 17.6943 17.2983 18.5025 16.6131 18.8055C15.187 19.4428 13.4979 18.1217 11.9124 18.1217C10.3268 18.1217 8.62182 19.4972 7.21956 18.8055C6.42282 18.4247 5.87307 17.4145 5.97665 16.5752C6.12006 15.4173 7.54623 14.7956 8.39077 13.9485C9.51417 12.8528 10.3109 10.7934 11.9124 10.7934C13.5058 10.7934 14.3504 12.8217 15.426 13.9485C16.3104 14.8966 17.7843 15.6971 17.8401 16.9638Z"
      fill="#FFD6D6" />
  </g>
  <defs>
    <clipPath id="clip0_12_5">
      <rect width="24" height="24" fill="white" />
    </clipPath>
  </defs>
</svg>